<?xml version="1.0" encoding="iso-8859-1"?>
<!-- Generator: Adobe Illustrator 19.0.0, SVG Export Plug-In . SVG Version: 6.00 Build 0)  -->
<svg version="1.1" id="Capa_1" xmlns="http://www.w3.org/2000/svg" xmlns:xlink="http://www.w3.org/1999/xlink" x="0px" y="0px"
	 viewBox="0 0 512 512" style="enable-background:new 0 0 512 512;" xml:space="preserve">
<g>
	<g>
		<path d="M401.427,454.423c-3.137-4.683-9.475-5.928-14.157-2.778c-37.525,25.226-82.633,39.928-131.273,39.934
			c-65.091-0.007-123.915-26.356-166.579-68.999c-42.643-42.664-68.984-101.493-68.992-166.585
			c0.007-57.441,20.543-109.974,54.677-150.855l7.868,38.021c1.144,5.527,6.541,9.073,12.062,7.936
			c5.527-1.144,9.073-6.548,7.929-12.068L88.929,71.21l-69.271-1.184c-5.636-0.095-10.292,4.397-10.38,10.04
			c-0.095,5.636,4.397,10.285,10.04,10.38l40.847,0.701C22.632,135.67-0.007,193.226,0,256.003
			C0.007,397.39,114.604,511.993,255.99,512c52.792,0,101.915-16.003,142.667-43.405
			C403.339,465.45,404.578,459.106,401.427,454.423z"/>
	</g>
</g>
<g>
	<g>
		<path d="M490.083,420.982l-37.872-0.653C489.483,375.875,512,318.536,512,255.997C511.994,114.604,397.384,0.007,255.997,0
			c-55.194-0.007-106.408,17.5-148.214,47.238c-4.601,3.267-5.676,9.645-2.409,14.239c3.267,4.595,9.645,5.67,14.239,2.409
			c38.512-27.376,85.518-43.46,136.384-43.466c65.091,0.007,123.915,26.348,166.585,68.999
			c42.643,42.657,68.992,101.493,68.999,166.579c-0.007,58.524-21.366,111.969-56.672,153.176l-8.467-40.921
			c-1.144-5.52-6.548-9.073-12.062-7.929c-5.527,1.144-9.073,6.541-7.929,12.068l14.029,67.814l69.264,1.191
			c5.636,0.102,10.285-4.397,10.38-10.033C500.211,425.734,495.719,421.077,490.083,420.982z"/>
	</g>
</g>
<g>
	<g>
		<path d="M302.316,250.251c10.224-8.958,16.717-22.081,16.724-36.749c0-27.009-21.883-48.878-48.878-48.885h-14.594v-9.359
			c0-5.262-4.261-9.529-9.523-9.529s-9.529,4.261-9.529,9.529v9.359h-15.069v-9.359c0-5.262-4.267-9.529-9.529-9.529
			s-9.529,4.261-9.529,9.529v9.359h-9.359c-5.262,0-9.529,4.261-9.529,9.529c0,5.268,4.267,9.529,9.529,9.529h9.359l0.006,144.642
			h-9.359c-5.262,0-9.529,4.261-9.529,9.529s4.267,9.529,9.529,9.529h9.359v9.359c0,5.262,4.267,9.529,9.529,9.529
			c5.262,0,9.529-4.261,9.529-9.529v-9.359h15.069v9.359c0,5.262,4.267,9.529,9.529,9.529c5.262,0,9.523-4.261,9.523-9.529v-9.359
			h20.876c28.737-0.007,52.016-23.286,52.03-52.023C328.473,276.034,317.937,259.222,302.316,250.251z M221.46,183.669l48.715,0.007
			c8.263,0,15.663,3.322,21.087,8.733c5.411,5.424,8.727,12.817,8.733,21.087c-0.007,8.263-3.322,15.663-8.74,21.087
			c-5.418,5.405-12.797,8.719-21.06,8.733H221.46V183.669z M299.776,318.658c-5.997,5.976-14.178,9.645-23.313,9.651H221.46v-65.935
			h54.997c9.141,0.007,17.322,3.675,23.319,9.651c5.983,5.997,9.651,14.178,9.651,23.313
			C309.429,304.48,305.76,312.661,299.776,318.658z"/>
	</g>
</g>
<g>
</g>
<g>
</g>
<g>
</g>
<g>
</g>
<g>
</g>
<g>
</g>
<g>
</g>
<g>
</g>
<g>
</g>
<g>
</g>
<g>
</g>
<g>
</g>
<g>
</g>
<g>
</g>
<g>
</g>
</svg>
