<?xml version="1.0" encoding="utf-8"?>
<!-- Generator: Adobe Illustrator 23.0.1, SVG Export Plug-In . SVG Version: 6.00 Build 0)  -->
<svg version="1.1" id="Layer_1" xmlns="http://www.w3.org/2000/svg" xmlns:xlink="http://www.w3.org/1999/xlink" x="0px" y="0px"
	 viewBox="0 0 1920 520" style="enable-background:new 0 0 1920 520;" xml:space="preserve">
<style type="text/css">
	.st0{fill:#7108FF;}
	.st1{fill:#222222;}
</style>
<g>
	<circle class="st0" cx="46.2" cy="67.1" r="46.2"/>
	<circle class="st0" cx="208.7" cy="67.1" r="46.2"/>
	<ellipse class="st0" cx="46.2" cy="256.6" rx="12.7" ry="12.7"/>
	<ellipse class="st0" cx="208.7" cy="256.7" rx="12.7" ry="12.7"/>
	<circle class="st0" cx="46.2" cy="446.3" r="46.2"/>
	<circle class="st0" cx="208.7" cy="446.3" r="19.1"/>
</g>
<g>
	<g>
		<path class="st1" d="M496,143.9c-28.5,0-50.2,12-65.3,35.9v-33.3h-62.3v296h62.3V330.6c14.2,23.1,36,34.6,65.3,34.6
			c29,0,51.6-10.5,68-31.5c16.4-21,24.5-47.6,24.5-79.8c0-33.8-8.4-60.7-25.3-80.5C546.4,153.8,523.9,143.9,496,143.9z M512.7,297.8
			c-8.6,10.4-19.6,15.6-33.3,15.6c-14.2,0-25.8-5.6-35.1-16.6c-9.1-11.2-13.7-25.8-13.7-44.3c0-17.8,4.8-31.9,14.5-41.7
			c9.7-9.9,21-15,34.1-15c13.4,0,24.4,5.1,33.1,15.1c8.6,10,13.1,25,13.1,44.6C525.5,273.3,521.2,287.3,512.7,297.8z"/>
		<path class="st1" d="M710.8,143.9c-32.2,0-57.8,10.7-77.3,32.2c-19.3,21.5-29,48.9-29,82.1c0,31.9,9.2,58,27.7,78.2
			c18.5,20.4,44.6,30.4,78.6,30.4c33.3,0,59.3-10.5,77.9-31.7c18.6-21.2,27.9-48.1,27.9-80.8c0-32.2-9.2-58.6-27.7-79.3
			C770.4,154.2,744.4,143.9,710.8,143.9z M741.9,301.5c-6.7,11.5-16.9,17.2-30.4,17.2c-13.9,0-24.4-5.9-31.4-17.7
			c-7-11.8-10.5-26.9-10.5-45.4s3.3-33.6,10.2-45.3c6.9-11.6,17-17.5,30.8-17.5c27.6,0,41.4,21.2,41.4,63.6
			C751.7,275,748.4,290,741.9,301.5z"/>
		<rect x="832.5" y="65.2" class="st1" width="62.3" height="301.6"/>
		<path class="st1" d="M1277.1,148.2c-15.6,0-29.2,3.5-40.3,10.5c-11.3,7-19.6,16.4-25,28.4v-38.9h-62.3v218.6h62.3V252.4
			c0-17.8,3.8-31.4,11.3-40.3c7.5-8.9,17-13.4,28.4-13.4c10.8,0,19.1,3.3,25.2,10c5.9,6.7,8.9,16.4,8.9,29.2v128.9h62.3V226.4
			c0-25.7-6.2-44.9-18.8-58.2C1316.6,154.7,1299.2,148.2,1277.1,148.2z"/>
		<path class="st1" d="M1901.4,168.6c-12.4-13.5-29.2-20.2-50.5-20.2c-15.3,0-28.7,3.7-40.2,10.8c-11.3,7.3-19.4,17.2-24.4,30.1
			c-10-27.2-30.1-40.9-60.5-40.9c-28.7,0-49.1,12-61,35.9v-33.8h-62.3v216.4h62.3V252.4c0-20.2,3.8-34.3,11.3-42.1
			c7.5-7.8,16.1-11.8,25.8-11.8c9.1,0,16.1,3.5,20.9,10.7c4.8,7.2,7.3,16.7,7.3,29v128.4h62.3V252.2c0-20.2,3.8-34.3,11.3-42.1
			s16.1-11.8,25.8-11.8c9.1,0,16.1,3.5,20.9,10.7c4.8,7.2,7.3,16.7,7.3,29v128.4h62.3V227.9C1919.8,201.9,1913.6,182.1,1901.4,168.6
			z"/>
		<path class="st1" d="M1133.5,148.2h-64.1c0,0-41.3,131.6-44.5,142.9l-46.4-142.8h-67.9l83.2,211.9l-33,84h61L1133.5,148.2z"/>
		<path class="st1" d="M1586.5,148.2h-64.1c0,0-41.3,131.6-44.5,142.9l-46.4-142.8h-67.9l83.2,211.8l-33.1,84.1h61L1586.5,148.2z"/>
	</g>
</g>
</svg>
